<svg id="Capa_1" data-name="Capa 1" xmlns="http://www.w3.org/2000/svg" viewBox="0 0 299.63 299.99"><defs><style>.cls-1,.cls-6{fill:#795035;}.cls-2{fill:#f5a800;}.cls-3{fill:#fff1dc;}.cls-4{fill:#51534a;}.cls-5{fill:#ee9d08;}.cls-6{fill-rule:evenodd;}</style></defs><path class="cls-1" d="M299.81,150c0,82.84-67.07,150-149.81,150S.19,232.84.19,150,67.25,0,150,0,299.81,67.16,299.81,150Z" transform="translate(-0.19 -0.01)"/><path class="cls-2" d="M293.28,150c0,79.23-64.15,143.46-143.28,143.46S6.72,229.23,6.72,150,70.86,6.54,150,6.54,293.28,70.77,293.28,150Z" transform="translate(-0.19 -0.01)"/><path class="cls-3" d="M284.92,150A134.92,134.92,0,1,1,150,14.92C224.51,14.92,284.92,75.4,284.92,150Z" transform="translate(-0.19 -0.01)"/><path class="cls-2" d="M81.56,152.75a6.25,6.25,0,0,1,.49-1.87,1.92,1.92,0,0,1,1.69-1.13c.5,0,1,0,1.62,0s1.13.06,1.68.11c1.36-2.2,2.83-4.6,4.43-7.21s3.2-5.22,4.77-7.84,3.11-5.16,4.58-7.59,2.77-4.56,3.87-6.42a5.37,5.37,0,0,1,2.74-2.44,8.23,8.23,0,0,1,6.46.27,4,4,0,0,1,1.84,1.5,29.5,29.5,0,0,0-4.17,4.61q-2.44,3.19-5.26,7.36c-1.87,2.78-3.83,5.77-5.85,9s-4,6.33-6,9.38a33.21,33.21,0,0,0,5.4-.3,20.66,20.66,0,0,0,5.56-1.58,9,9,0,0,1,.11,1.28,6.87,6.87,0,0,1-.22,1.95,6.37,6.37,0,0,1-.9,2,3,3,0,0,1-1.84,1.24,18.83,18.83,0,0,1-4.88.15,58.31,58.31,0,0,1-5.86-.75q-4,6.32-8.18,11.79a61.21,61.21,0,0,1-8,8.93,22.15,22.15,0,0,1-8,4.62,14,14,0,0,1-6.95.38,11.36,11.36,0,0,1-5.37-2.86,12,12,0,0,1-3.22-5.14,12.88,12.88,0,0,1-.46-7.06,22,22,0,0,1,2.67-6.9,21.72,21.72,0,0,1,4.66-5.56,12.76,12.76,0,0,1,5.51-2.93,7,7,0,0,1,5.26.9c1.65,1,3,3,3.9,6a13,13,0,0,0-7.13.19,18.26,18.26,0,0,0-6.57,3.49A15.92,15.92,0,0,0,55.51,166a9.75,9.75,0,0,0-.6,6.72,8.41,8.41,0,0,0,2.59,3.79A6.56,6.56,0,0,0,61,177.91a9.22,9.22,0,0,0,4-.68,17.34,17.34,0,0,0,4.17-2.33,20,20,0,0,0,3-3c1.15-1.37,2.41-3,3.76-4.91s2.79-4,4.31-6.39,3.09-4.8,4.7-7.36a19.68,19.68,0,0,0-2.44-.48Q81.64,152.6,81.56,152.75Zm-10-29a14.09,14.09,0,0,1,4.16-5.52,23.16,23.16,0,0,1,7-3.75,46,46,0,0,1,9.57-2.14,117.62,117.62,0,0,1,11.79-.83q4.5-.07,9.53-.07c3.36,0,6.71,0,10.07-.15s6.64-.27,9.87-.49a71.43,71.43,0,0,0,9-1.17,37.78,37.78,0,0,0,7.36-2.17,13.09,13.09,0,0,0,5-3.46,18.57,18.57,0,0,1,.15,3.49,15.68,15.68,0,0,1-.71,4.1,10.29,10.29,0,0,1-1.92,3.56,5.45,5.45,0,0,1-3.37,1.92,63.43,63.43,0,0,1-13.48,1q-7.09-.18-14.27-.82L107.21,116a111.21,111.21,0,0,0-13-.49,41.8,41.8,0,0,0-10.85,1.58,15.28,15.28,0,0,0-7.74,5,9,9,0,0,0-1.95,3.94,7.76,7.76,0,0,0,.11,3.64,5.82,5.82,0,0,0,1.77,2.78,4.8,4.8,0,0,0,3.08,1.2,9.83,9.83,0,0,0,2.66-.26,11.55,11.55,0,0,0,3.08-1.2,11.72,11.72,0,0,0,2.85-2.29,9.19,9.19,0,0,0,2-3.61,11.81,11.81,0,0,1,1.58,2,7.38,7.38,0,0,1,1,2.63,6.89,6.89,0,0,1-.15,3,7.78,7.78,0,0,1-1.91,3.27,11.75,11.75,0,0,1-4.92,2.77,11.48,11.48,0,0,1-5,.23A11.29,11.29,0,0,1,72,134.7a12.14,12.14,0,0,1-1.46-5A12.68,12.68,0,0,1,71.58,123.77Z" transform="translate(-0.19 -0.01)"/><path class="cls-2" d="M140.81,161.16a75.4,75.4,0,0,1-6.24,5.86,76.11,76.11,0,0,1-6.34,4.84,35.22,35.22,0,0,1-5.63,3.19,7.82,7.82,0,0,1-4,.91,5.18,5.18,0,0,1-1.65-4,17.93,17.93,0,0,1,1.09-6.12,51.21,51.21,0,0,1,3.45-7.81,86.49,86.49,0,0,1,5.6-9.05l-2.67-.11a8.93,8.93,0,0,1-2.44-.49q-3.15,4.57-6.23,8.52t-5.3,7.4a25.87,25.87,0,0,0-3.11,6.49,8.31,8.31,0,0,0,.3,5.82,8.7,8.7,0,0,1-2.89-1.73,6.07,6.07,0,0,1-1.43-2,4.87,4.87,0,0,1-.41-1.87,5,5,0,0,1,.22-1.58,23.33,23.33,0,0,1,3.38-6.53q2.4-3.39,5-6.46T116.4,151a23.45,23.45,0,0,0,2.93-3.64,7,7,0,0,1-2.18-1.58,4.37,4.37,0,0,1-1.12-2.25,5,5,0,0,1,.22-2.63,3.9,3.9,0,0,1,1.32-1.76,4.1,4.1,0,0,1,2-.79,3.34,3.34,0,0,1,2,.3,3.38,3.38,0,0,1,1.58,1.72,3.85,3.85,0,0,1,.22,2.48,4.84,4.84,0,0,0,2.07,1.2,15.17,15.17,0,0,0,2.29.53,13.59,13.59,0,0,0,2.55.07,8.37,8.37,0,0,1,2.66-1.5,7.21,7.21,0,0,1,2.37-.33,6,6,0,0,1,2.14.45c.68.27,1.36.58,2.06.93A145,145,0,0,0,125.23,162q-4.77,7.4-5.15,10.32a8.92,8.92,0,0,0,4.09-.82,29,29,0,0,0,5-2.71,58.14,58.14,0,0,0,5.29-4,61.81,61.81,0,0,0,5.11-4.85Z" transform="translate(-0.19 -0.01)"/><path class="cls-2" d="M171.66,158.76a34,34,0,0,1-3.3,2.22q-1.73,1-3.42,1.8a26.73,26.73,0,0,1-3.22,1.27,15.77,15.77,0,0,1-2.67.64,27.7,27.7,0,0,1-4.62,5.52,28,28,0,0,1-5,3.72,16.82,16.82,0,0,1-4.84,1.91,9.73,9.73,0,0,1-4.06.12,4.32,4.32,0,0,1-2.36-1.58,10.19,10.19,0,0,1-1.54-2.85,15.92,15.92,0,0,1-.83-3.57,23.53,23.53,0,0,1-.15-3.72,25.13,25.13,0,0,1,1.28-7.17,28.14,28.14,0,0,1,3.38-7,25.78,25.78,0,0,1,5.26-5.78,19.41,19.41,0,0,1,6.9-3.64,5.77,5.77,0,0,1,2.67-.12,5.08,5.08,0,0,1,2.29,1.09,4.67,4.67,0,0,1,1.42,5,14,14,0,0,0-5.36.94,19.53,19.53,0,0,0-5.07,2.89,24.29,24.29,0,0,0-4.32,4.39,25,25,0,0,0-3.12,5.33,19.11,19.11,0,0,0-1.46,5.79,14.25,14.25,0,0,0,.64,5.74,2.63,2.63,0,0,0,1.31,1.58,3.31,3.31,0,0,0,2.07-.08,14,14,0,0,0,5.14-3.08,17.15,17.15,0,0,0,4.09-5.63,5,5,0,0,1-3-2.21,5.75,5.75,0,0,1-.68-3.16,10.47,10.47,0,0,1,.79-3.3,11.65,11.65,0,0,1,1.5-2.67,18.68,18.68,0,0,1,4.13-4,13.08,13.08,0,0,1,5.56-2.25,3.75,3.75,0,0,1,2.06,2.7,11.34,11.34,0,0,1,.08,4.13,22.33,22.33,0,0,1-1.2,4.51c-.58,1.5-1.12,2.77-1.62,3.82a9,9,0,0,0,1.95-.45,18.54,18.54,0,0,0,2.59-1.05c.93-.45,1.89-1,2.9-1.57a18.79,18.79,0,0,0,2.77-2ZM155.6,153.2a7.28,7.28,0,0,0-2.18,2,8.22,8.22,0,0,0-1.39,2.62,4.49,4.49,0,0,0-.08,2.56,2.61,2.61,0,0,0,1.77,1.72c.15-.45.32-1,.52-1.76s.39-1.48.57-2.25.32-1.54.45-2.29.21-1.38.26-1.88Z" transform="translate(-0.19 -0.01)"/><path class="cls-2" d="M171.29,176.41a9.94,9.94,0,0,1-5.22-1.39,9.85,9.85,0,0,1-4.84-8.68,10.54,10.54,0,0,1,1.8-5.63,8.37,8.37,0,0,1,3.72-3.26,9.88,9.88,0,0,1,4.65-1,6.65,6.65,0,0,1,4,1.5,5.08,5.08,0,0,1,1.69,4.17,3.93,3.93,0,0,1-.83,2.29,6.06,6.06,0,0,1-1.83,1.54,9.69,9.69,0,0,1-2.26.9,12.5,12.5,0,0,1-2.06.38,7.16,7.16,0,0,0,1.39-3.61,3.35,3.35,0,0,0-.72-2.4,2.73,2.73,0,0,0-2.06-.86,3.49,3.49,0,0,0-2.52,1.08,8.05,8.05,0,0,0-2.06,4,7.77,7.77,0,0,0,.19,4,5.76,5.76,0,0,0,2.17,2.93,5.19,5.19,0,0,0,3.83.83,9.67,9.67,0,0,0,2.22-.53,9.94,9.94,0,0,0,2.66-1.46,11.21,11.21,0,0,0,2.52-2.74,13,13,0,0,0,1.76-4.43,15.5,15.5,0,0,0-.22-5.45c-.4-1.87-.77-3.74-1.09-5.59a21.14,21.14,0,0,1-.3-5.33,7.22,7.22,0,0,1,2.14-4.58,7.08,7.08,0,0,1,3-1.95,6.82,6.82,0,0,1,3.12-.3,4.74,4.74,0,0,1,2.51,1.16,3.7,3.7,0,0,1,1.21,2.44,14,14,0,0,1,3.64-2.89,7.25,7.25,0,0,1,4.09-.94,37.42,37.42,0,0,0-4.36,6.65,21.24,21.24,0,0,0-2.17,7,3,3,0,0,1-1.24-.19,5.05,5.05,0,0,1-1.65-.87,4.13,4.13,0,0,1-1.24-1.53,2.84,2.84,0,0,1,0-2.22,5.24,5.24,0,0,1,.41-1.13l.56-1.12a2.38,2.38,0,0,0,0-1.62,2,2,0,0,0-.75-.94,1.78,1.78,0,0,0-1.13-.22,1.66,1.66,0,0,0-1,.45c-.9.9-1.31,2.38-1.24,4.43a30.43,30.43,0,0,0,1.17,6.91,20.56,20.56,0,0,1,.63,7.28,15.33,15.33,0,0,1-2,6.46,12.91,12.91,0,0,1-4.77,4.62A15.53,15.53,0,0,1,171.29,176.41Z" transform="translate(-0.19 -0.01)"/><path class="cls-2" d="M214.76,161.76a60.4,60.4,0,0,1-12.16,10.1,33.69,33.69,0,0,1-5.86,3,13.93,13.93,0,0,1-4.8,1,8.32,8.32,0,0,1-1.39-1.61,4.29,4.29,0,0,1-.64-2.14,10.85,10.85,0,0,1,.38-3.16,29.67,29.67,0,0,1,1.65-4.65,87.1,87.1,0,0,1,4-7.89q2.52-4.43,5.37-9.16c-2.9-.3-4.38-.37-4.43-.22a6.21,6.21,0,0,1,.49-2.18,2.21,2.21,0,0,1,1.77-1.5c.85-.05,1.61-.06,2.29,0s1.43.09,2.29.19q2.55-4.12,5.1-8t4.62-6.91q2.07-3,3.45-5c.93-1.32,1.52-2.14,1.77-2.44a4.06,4.06,0,0,1,2.25-1.46,7.84,7.84,0,0,1,2.78-.19,10.77,10.77,0,0,1,2.78.68q1.35.52,2.4,1a55.91,55.91,0,0,0-4.39,4.43q-2.3,2.55-4.66,5.48c-1.58,2-3.17,4-4.77,6.19s-3.18,4.37-4.73,6.57c.95.05,1.67.08,2.14.08a7.62,7.62,0,0,0,2-.38c0,.25.13.54.23.87a2.93,2.93,0,0,1,.11,1.09,3.15,3.15,0,0,1-.37,1.23,2.78,2.78,0,0,1-3.16,1.47c-.82-.1-2-.2-3.64-.3q-2.85,4.28-5.33,8.26T198,163.42c-1.23,2.15-2.2,4-2.93,5.48a12.13,12.13,0,0,0-1.16,3,9.81,9.81,0,0,0,4.09-.71,31,31,0,0,0,5-2.44,50.46,50.46,0,0,0,5.41-3.72,51.3,51.3,0,0,0,5.14-4.62Z" transform="translate(-0.19 -0.01)"/><path class="cls-2" d="M244,163.94a62.56,62.56,0,0,1-9.08,7.7,32.14,32.14,0,0,1-9.09,4.54,79.44,79.44,0,0,1-3.23,9.12,27.48,27.48,0,0,1-3.57,6.2,11.28,11.28,0,0,1-4.16,3.41,9.73,9.73,0,0,1-5.11.72,4.72,4.72,0,0,1-2.59-1,5.13,5.13,0,0,1-1.5-2,6.56,6.56,0,0,1,0-5.07,11.9,11.9,0,0,1,2.4-3.75,26,26,0,0,1,3.72-3.34,37.67,37.67,0,0,1,4.35-2.82,43.33,43.33,0,0,1,4.47-2.17c.4-1.41.84-2.78,1.31-4.13s1-2.71,1.54-4.06a25.9,25.9,0,0,1-3.11,3.3,29.29,29.29,0,0,1-3.61,2.78,21.46,21.46,0,0,1-3.6,1.92A8.74,8.74,0,0,1,210,176q-2.25-.67-2.18-3.87a24.53,24.53,0,0,1,1.84-7.84,71.92,71.92,0,0,1,5-10.25,102.36,102.36,0,0,1,7.36-11,4.51,4.51,0,0,1,2.07-1.62,5.72,5.72,0,0,1,2.4-.3,10.44,10.44,0,0,1,2.44.53,17.65,17.65,0,0,1,2.25.94,126.25,126.25,0,0,0-8.33,10.06q-3.62,4.88-6.12,8.9a59.94,59.94,0,0,0-3.87,7,20.1,20.1,0,0,0-1.58,4.43,11.2,11.2,0,0,0,3.42-1.24,27.57,27.57,0,0,0,3.9-2.55,40.85,40.85,0,0,0,3.87-3.42,33.91,33.91,0,0,0,3.31-3.83,100.69,100.69,0,0,1,11.48-18.92,4.51,4.51,0,0,1,2.07-1.62,5.87,5.87,0,0,1,2.44-.3,10.55,10.55,0,0,1,2.48.53,17.65,17.65,0,0,1,2.25.94c-2.7,2.95-5.1,5.77-7.17,8.44s-3.92,5.22-5.52,7.63a61.2,61.2,0,0,0-4.51,8,56.27,56.27,0,0,0-2.7,7,25.88,25.88,0,0,0,7-3.71,61,61,0,0,0,7.7-6.57Zm-24.18,14a20.39,20.39,0,0,0-4,2.48,27.57,27.57,0,0,0-3.12,2.85,24.46,24.46,0,0,0-2.1,2.59,17.07,17.07,0,0,0-1.09,1.77,4.28,4.28,0,0,0-.56,1.84,3.29,3.29,0,0,0,.11,1.12,1.38,1.38,0,0,0,.68.87,2.2,2.2,0,0,0,2.47-.19,10.57,10.57,0,0,0,2.86-2.78,26.55,26.55,0,0,0,2.7-4.65A34.78,34.78,0,0,0,219.79,178Z" transform="translate(-0.19 -0.01)"/><path class="cls-4" d="M95.22,236.27v.24h-.7v-.29c0-1.19-.45-2.09-1.68-2.09s-1.67.89-1.67,2.07c0,2.74,4.07,2.79,4.07,5.89,0,1.62-.71,2.81-2.43,2.81s-2.42-1.19-2.42-2.81v-.58h.7v.63c0,1.2.47,2.07,1.71,2.07s1.7-.87,1.7-2.07c0-2.7-4.07-2.75-4.07-5.89,0-1.68.74-2.78,2.4-2.79S95.22,234.65,95.22,236.27Z" transform="translate(-0.19 -0.01)"/><path class="cls-4" d="M97.17,233.55v11.26h-.74V233.55Z" transform="translate(-0.19 -0.01)"/><path class="cls-4" d="M102.23,244.79h-.74l-2.38-9.95v10h-.66V233.55h1.06l2.37,9.95,2.34-9.95h1.07v11.26h-.71v-10Z" transform="translate(-0.19 -0.01)"/><path class="cls-4" d="M108.9,233.55c1.74,0,2.41,1.1,2.41,2.74v1.22c0,1.78-.82,2.67-2.6,2.67h-1.4v4.63h-.74V233.55Zm-.19,5.95c1.3,0,1.86-.58,1.86-1.94v-1.32c0-1.22-.41-2-1.67-2h-1.59v5.27Z" transform="translate(-0.19 -0.01)"/><path class="cls-4" d="M112.45,244.81V233.55h.74v10.58h3.54v.68Z" transform="translate(-0.19 -0.01)"/><path class="cls-4" d="M121.65,238.76v.68h-3.07v4.69h3.69v.68h-4.43V233.55h4.43v.68h-3.69v4.53Z" transform="translate(-0.19 -0.01)"/><path class="cls-4" d="M127.26,244.79h-.74l-2.38-9.95v10h-.66V233.55h1.06l2.36,9.95,2.35-9.95h1.06v11.26h-.71v-10Z" transform="translate(-0.19 -0.01)"/><path class="cls-4" d="M135.41,238.76v.68h-3.08v4.69H136v.68H131.6V233.55H136v.68h-3.7v4.53Z" transform="translate(-0.19 -0.01)"/><path class="cls-4" d="M137.91,244.81h-.67V233.55h1l3.38,9.5v-9.5h.67v11.26h-.82l-3.52-10Z" transform="translate(-0.19 -0.01)"/><path class="cls-4" d="M145.47,244.81V234.23h-2.3v-.68h5.32v.68h-2.28v10.58Z" transform="translate(-0.19 -0.01)"/><path class="cls-4" d="M153.26,238.76v.68h-3.07v4.69h3.7v.68h-4.44V233.55h4.44v.68h-3.7v4.53Z" transform="translate(-0.19 -0.01)"/><path class="cls-2" d="M159.35,238.29h2.43v1.61h-2.43v3.3h3.06v1.61h-4.82V233.55h4.82v1.61h-3.06Z" transform="translate(-0.19 -0.01)"/><path class="cls-2" d="M169.4,233.55,167.55,239l2,5.79h-1.87l-1.44-4.46-1.47,4.46H163.1l2-5.79-1.85-5.47h1.83l1.33,4.15,1.37-4.15Z" transform="translate(-0.19 -0.01)"/><path class="cls-2" d="M170,236.25c0-1.8.94-2.83,2.68-2.83a2.5,2.5,0,0,1,2.69,2.83v5.85a3.39,3.39,0,0,1-.34,1.58c.08.21.21.24.5.24h.16v1.58h-.24a1.54,1.54,0,0,1-1.53-.78,3.62,3.62,0,0,1-1.24.21c-1.74,0-2.68-1-2.68-2.83Zm1.76,6c0,.8.36,1.11.92,1.11s.92-.31.92-1.11v-6.08c0-.8-.36-1.11-.92-1.11s-.92.31-.92,1.11Z" transform="translate(-0.19 -0.01)"/><path class="cls-2" d="M178.22,233.55v8.68c0,.81.36,1.1.92,1.1s.92-.29.92-1.1v-8.68h1.67v8.57c0,1.8-.9,2.83-2.64,2.83s-2.63-1-2.63-2.83v-8.57Z" transform="translate(-0.19 -0.01)"/><path class="cls-2" d="M182.93,233.55h1.77v11.26h-1.77Z" transform="translate(-0.19 -0.01)"/><path class="cls-2" d="M188.37,233.42c1.72,0,2.6,1,2.6,2.83v.36H189.3v-.47c0-.8-.32-1.11-.89-1.11s-.88.31-.88,1.11c0,2.32,3.46,2.75,3.46,6,0,1.8-.9,2.83-2.64,2.83s-2.64-1-2.64-2.83v-.69h1.67v.81c0,.8.36,1.09.92,1.09s.92-.29.92-1.09c0-2.32-3.46-2.75-3.46-6C185.76,234.45,186.65,233.42,188.37,233.42Z" transform="translate(-0.19 -0.01)"/><path class="cls-2" d="M192,233.55h1.77v11.26H192Z" transform="translate(-0.19 -0.01)"/><path class="cls-2" d="M194.54,233.55H200v1.61h-1.85v9.65h-1.76v-9.65h-1.85Z" transform="translate(-0.19 -0.01)"/><path class="cls-2" d="M200.63,236.25a2.69,2.69,0,1,1,5.37,0v5.85a2.69,2.69,0,1,1-5.37,0Zm1.77,6c0,.8.35,1.11.91,1.11s.92-.31.92-1.11v-6.08c0-.8-.35-1.11-.92-1.11s-.91.31-.91,1.11Z" transform="translate(-0.19 -0.01)"/><path class="cls-2" d="M276.21,150c0-1.69,0-3.35-.1-5l-2,.07c.07,1.64.11,3.3.11,4.95Zm-.12,7.49c.07-1.67.1-3.34.12-5h-2c0,1.66,0,3.32-.12,4.95Zm-.86,8.24c.21-1.66.38-3.32.52-5l-2-.16q-.21,2.46-.51,4.92Zm-1.64,9.92c.34-1.63.65-3.29.92-5l-2-.32c-.26,1.64-.57,3.26-.9,4.86Zm-2.43,9.76c.46-1.61.9-3.22,1.31-4.86l-1.94-.48q-.6,2.4-1.29,4.77Zm-3.22,9.53q.9-2.35,1.7-4.74l-1.89-.64c-.52,1.57-1.08,3.11-1.67,4.65Zm-3.95,9.2q1.08-2.25,2.07-4.56l-1.84-.8c-.65,1.52-1.33,3-2,4.5ZM259.3,213q1.26-2.18,2.43-4.39L260,207.7c-.77,1.45-1.57,2.9-2.39,4.31Zm-5.38,8.47c1-1.36,1.88-2.76,2.78-4.18L255,216.23c-.88,1.4-1.8,2.77-2.73,4.13Zm-6,8c1.07-1.3,2.1-2.62,3.11-4l-1.59-1.2c-1,1.32-2,2.61-3.06,3.9ZM241.21,237c1.16-1.21,2.3-2.45,3.41-3.7L243.13,232q-1.65,1.86-3.36,3.64ZM234,244q1.88-1.68,3.69-3.42l-1.38-1.43q-1.78,1.71-3.63,3.35Zm-7.78,6.38q2-1.53,3.95-3.11l-1.26-1.55c-1.28,1.06-2.57,2.06-3.89,3.07Zm-8.27,5.74q2.13-1.35,4.2-2.79L221,251.7c-1.35.94-2.72,1.86-4.12,2.74Zm-8.69,5.06c1.48-.78,2.94-1.61,4.4-2.45l-1-1.71c-1.42.82-2.86,1.61-4.33,2.4Zm-9.09,4.35c1.54-.65,3.08-1.35,4.59-2.08l-.86-1.8c-1.5.72-3,1.39-4.52,2Zm-9.41,3.61q2.4-.81,4.74-1.7l-.71-1.86c-1.54.57-3.11,1.14-4.67,1.66ZM181.09,272c1.62-.4,3.24-.84,4.84-1.32l-.56-1.91q-2.37.69-4.77,1.29Zm-9.85,2c1.66-.27,3.31-.59,4.94-.92l-.4-2c-1.62.33-3.24.63-4.87.9l.33,2Zm-10,1.24c1.68-.13,3.35-.31,5-.52l-.24-2c-1.64.19-3.27.36-4.93.5Zm-10,.46c1.69,0,3.36-.05,5-.13l-.09-2c-1.64.07-3.29.12-4.95.12Zm-10.05-.33c1.67.11,3.35.2,5,.27l.07-2c-1.65-.06-3.3-.15-4.94-.27Zm-10-1.14c1.65.27,3.32.48,5,.67l.23-2c-1.64-.19-3.28-.41-4.91-.65Zm-9.87-1.92c1.63.38,3.26.73,4.91,1.06l.39-2c-1.62-.32-3.24-.66-4.83-1.05Zm-9.68-2.72c1.59.52,3.2,1,4.81,1.45l.55-1.92q-2.4-.67-4.74-1.42l-.62,1.89Zm-9.42-3.48c1.54.64,3.11,1.25,4.67,1.84l.69-1.88c-1.54-.57-3.08-1.17-4.59-1.8Zm-9.09-4.23c1.48.76,3,1.51,4.5,2.22l.84-1.81c-1.5-.7-3-1.42-4.44-2.18ZM84.39,257c1.42.88,2.85,1.74,4.32,2.56l1-1.73c-1.44-.82-2.86-1.65-4.25-2.52Zm-8.32-5.61c1.34,1,2.71,2,4.1,2.89l1.12-1.65c-1.36-.94-2.72-1.88-4-2.86Zm-7.86-6.28c1.27,1.1,2.56,2.18,3.87,3.22l1.25-1.57c-1.3-1-2.56-2.08-3.81-3.16Zm-7.32-6.87c1.17,1.18,2.37,2.36,3.59,3.51l1.37-1.46c-1.21-1.12-2.38-2.27-3.54-3.46Zm-6.77-7.44c1.08,1.27,2.18,2.55,3.31,3.78l1.47-1.34c-1.11-1.23-2.2-2.46-3.25-3.72Zm-6.15-8c1,1.38,2,2.72,3,4.05l1.58-1.22c-1-1.3-2-2.64-2.94-4Zm-5.51-8.41c.87,1.43,1.75,2.86,2.67,4.26l1.67-1.09c-.9-1.39-1.78-2.78-2.62-4.2Zm-4.82-8.85c.75,1.51,1.53,3,2.32,4.47l1.76-1q-1.19-2.17-2.28-4.41Zm-4.08-9.21c.62,1.57,1.27,3.11,1.95,4.64l1.82-.8q-1-2.27-1.91-4.57Zm-3.33-9.51c.48,1.6,1,3.19,1.56,4.79l1.89-.67c-.54-1.55-1.06-3.13-1.56-4.71Zm-2.55-9.73q.53,2.46,1.17,4.89l1.92-.5c-.41-1.59-.79-3.2-1.15-4.82Zm-1.77-9.89c.23,1.66.49,3.32.78,5l2-.36c-.29-1.6-.55-3.23-.77-4.87Zm-1-10c.1,1.69.22,3.37.39,5l2-.19c-.16-1.63-.28-3.28-.37-4.93Zm-.16-10c0,.94,0,1.9,0,2.85,0,.72,0,1.45,0,2.18l2,0c0-.71,0-1.42,0-2.14,0-.94,0-1.87,0-2.82Zm.62-10c-.17,1.66-.31,3.33-.41,5l2,.12c.1-1.65.24-3.31.4-4.94Zm1.42-10c-.31,1.64-.58,3.29-.82,5l2,.28c.23-1.64.5-3.26.8-4.88Zm2.2-9.81c-.43,1.63-.83,3.25-1.21,4.89l2,.44c.36-1.62.76-3.21,1.19-4.8Zm3-9.59q-.86,2.35-1.6,4.77l1.91.6q.73-2.37,1.56-4.7Zm3.74-9.32c-.68,1.53-1.34,3.06-2,4.61l1.85.76c.62-1.53,1.26-3,1.94-4.55Zm4.49-9c-.81,1.45-1.58,3-2.33,4.44l1.79.89c.73-1.47,1.5-2.92,2.29-4.38l-1.75-1Zm5.19-8.6Q44,83,42.76,85.12l1.71,1c.85-1.41,1.73-2.81,2.63-4.17l-1.66-1.11Zm5.85-8.16c-1,1.32-2,2.67-3,4l1.63,1.16c1-1.33,2-2.66,3-4ZM57.78,65q-1.68,1.86-3.32,3.78L56,70.11c1.07-1.26,2.16-2.49,3.27-3.72Zm7.09-7.12Q63,59.63,61.26,61.41l1.41,1.4c1.16-1.16,2.35-2.32,3.56-3.45Zm7.63-6.56c-1.32,1-2.61,2.11-3.88,3.2l1.3,1.52q1.88-1.62,3.82-3.16L72.5,51.36Zm8.13-5.92c-1.4.93-2.77,1.88-4.12,2.87l1.17,1.62C79,49,80.37,48,81.74,47.09Zm8.58-5.27c-1.46.82-2.92,1.67-4.34,2.55l1,1.7q2.1-1.29,4.27-2.5Zm9-4.56q-2.3,1.05-4.53,2.21l.9,1.76c1.47-.73,3-1.45,4.47-2.14Zm9.32-3.82c-1.57.58-3.14,1.19-4.69,1.83l.75,1.84c1.53-.63,3.07-1.22,4.63-1.79Zm9.6-3.05c-1.62.45-3.22.92-4.82,1.44l.61,1.88c1.57-.49,3.14-1,4.74-1.39Zm9.79-2.27c-1.65.31-3.28.67-4.91,1l.45,1.94c1.61-.36,3.22-.71,4.84-1ZM136.85,25q-2.5.27-5,.63l.29,2c1.62-.26,3.26-.47,4.9-.64Zm10-.69c-1.68.05-3.36.14-5,.26l.14,2c1.63-.11,3.28-.19,4.93-.24Zm10.05.12c-1.66-.08-3.34-.13-5-.16l0,2c1.66,0,3.32.07,5,.16Zm10,.91c-1.65-.22-3.31-.4-5-.56l-.18,2c1.65.15,3.28.33,4.91.54Zm9.91,1.7c-1.63-.35-3.28-.66-4.94-.95l-.33,2c1.62.27,3.25.59,4.86.93Zm9.74,2.49c-1.6-.48-3.22-.92-4.84-1.34l-.5,1.93c1.61.41,3.19.85,4.76,1.32Zm9.5,3.27c-1.55-.6-3.13-1.19-4.71-1.73L190.73,33c1.56.54,3.1,1.11,4.64,1.7Zm9.2,4c-1.5-.72-3-1.43-4.55-2.1l-.81,1.83c1.51.65,3,1.35,4.49,2.06Zm8.84,4.74q-2.15-1.26-4.37-2.46l-.95,1.77c1.46.77,2.89,1.58,4.31,2.41ZM222.58,47q-2.06-1.44-4.17-2.79l-1.08,1.66c1.39.91,2.75,1.82,4.1,2.77Zm8,6.09C229.28,52,228,51,226.63,49.94l-1.21,1.6c1.32,1,2.6,2,3.87,3.07Zm7.48,6.71c-1.2-1.17-2.43-2.3-3.68-3.43L233,57.84c1.23,1.1,2.44,2.23,3.62,3.37Zm6.93,7.3c-1.11-1.26-2.24-2.51-3.39-3.72l-1.45,1.37q1.71,1.8,3.34,3.66Zm6.33,7.8c-1-1.35-2-2.67-3.09-4l-1.55,1.26c1,1.28,2.06,2.59,3,3.91Zm5.69,8.3c-.89-1.42-1.81-2.83-2.76-4.2l-1.65,1.12c.94,1.37,1.84,2.74,2.72,4.15Zm5,8.73q-1.15-2.23-2.42-4.41l-1.73,1c.83,1.42,1.62,2.88,2.39,4.33Zm4.3,9.11c-.65-1.55-1.34-3.08-2.05-4.6l-1.81.86c.7,1.49,1.38,3,2,4.52Zm3.55,9.44c-.53-1.6-1.08-3.19-1.68-4.76l-1.87.7c.59,1.56,1.13,3.1,1.66,4.68Zm2.78,9.66c-.4-1.63-.83-3.26-1.29-4.86l-1.92.55c.45,1.59.88,3.17,1.27,4.77Zm2,9.86c-.28-1.67-.57-3.31-.9-5l-2,.4c.32,1.62.62,3.23.88,4.86Zm1.18,10c-.13-1.68-.3-3.36-.49-5l-2,.25c.19,1.62.35,3.25.49,4.92Z" transform="translate(-0.19 -0.01)"/><path class="cls-4" d="M213.88,210.28c1.66,0,6.25,1.72,6.25,2.59s-4.59,2.61-6.25,2.61-3-.95-3-2.61S212.24,210.28,213.88,210.28Z" transform="translate(-0.19 -0.01)"/><path class="cls-4" d="M210.09,213.85c1.17,1.17,3.19,5.64,2.58,6.26s-5.09-1.41-6.26-2.58-1.44-2.79-.27-4S208.92,212.68,210.09,213.85Z" transform="translate(-0.19 -0.01)"/><path class="cls-4" d="M206.42,207.89c1.16-1.18,5.64-3.18,6.25-2.57s-1.41,5.08-2.58,6.24-2.78,1.46-4,.28S205.24,209.05,206.42,207.89Z" transform="translate(-0.19 -0.01)"/><path class="cls-4" d="M203.64,213.85c1.17,1.17,3.2,5.64,2.58,6.26s-5.09-1.42-6.25-2.58-1.45-2.79-.27-4S202.48,212.68,203.64,213.85Z" transform="translate(-0.19 -0.01)"/><path class="cls-4" d="M200,207.89c1.16-1.18,5.64-3.18,6.25-2.57s-1.41,5.08-2.58,6.24-2.78,1.46-3.94.28S198.8,209.05,200,207.89Z" transform="translate(-0.19 -0.01)"/><path class="cls-4" d="M197.2,213.85c1.17,1.17,3.19,5.64,2.57,6.26s-5.09-1.42-6.25-2.58-1.45-2.79-.28-4S196,212.68,197.2,213.85Z" transform="translate(-0.19 -0.01)"/><path class="cls-4" d="M193.52,207.89c1.16-1.18,5.63-3.18,6.25-2.57s-1.4,5.08-2.57,6.24-2.79,1.46-4,.28S192.35,209.05,193.52,207.89Z" transform="translate(-0.19 -0.01)"/><path class="cls-4" d="M190.75,213.85c1.17,1.17,3.19,5.64,2.58,6.26s-5.09-1.42-6.26-2.58-1.44-2.79-.28-4S189.58,212.68,190.75,213.85Z" transform="translate(-0.19 -0.01)"/><path class="cls-4" d="M187.07,207.89c1.17-1.18,5.64-3.18,6.26-2.57s-1.41,5.08-2.58,6.24-2.79,1.46-4,.28A2.68,2.68,0,0,1,187.07,207.89Z" transform="translate(-0.19 -0.01)"/><path class="cls-4" d="M227.3,216.22c0,.08-.27.17-3.31.17-5.73,0-10.37-.07-10.37-.17S218.26,216,224,216C227,216,227.3,216.12,227.3,216.22Z" transform="translate(-0.19 -0.01)"/><path class="cls-4" d="M223.23,218.81c0,.11-.19.18-2.32.18a70.18,70.18,0,0,1-7.29-.18c0-.09,3.26-.17,7.29-.17C223,218.64,223.23,218.72,223.23,218.81Z" transform="translate(-0.19 -0.01)"/><path class="cls-4" d="M227.3,209.26c0,.09-.27.17-3.31.17-5.73,0-10.37-.08-10.37-.17s4.64-.18,10.37-.18C227,209.08,227.3,209.15,227.3,209.26Z" transform="translate(-0.19 -0.01)"/><path class="cls-4" d="M223.23,206.66c0,.09-.19.17-2.32.17-4,0-7.29-.08-7.29-.17a70.18,70.18,0,0,1,7.29-.18C223,206.48,223.23,206.55,223.23,206.66Z" transform="translate(-0.19 -0.01)"/><path class="cls-4" d="M227.3,212.83c0,.08-.11.17-1.39.17a30.4,30.4,0,0,1-4.37-.17,25.76,25.76,0,0,1,4.36-.19C227.19,212.64,227.3,212.73,227.3,212.83Z" transform="translate(-0.19 -0.01)"/><path class="cls-4" d="M189.2,212.4H177.07c-.18,0-.21.5,0,.5h12.13C189.35,212.9,189.37,212.4,189.2,212.4Z" transform="translate(-0.19 -0.01)"/><path class="cls-4" d="M81.88,215.14c-1.65,0-6.25-1.74-6.25-2.6s4.6-2.61,6.25-2.61,3,1,3,2.61S83.53,215.14,81.88,215.14Z" transform="translate(-0.19 -0.01)"/><path class="cls-4" d="M85.68,211.56c-1.18-1.16-3.19-5.63-2.58-6.24s5.08,1.39,6.25,2.57a2.68,2.68,0,0,1,.28,4C88.46,213,86.84,212.74,85.68,211.56Z" transform="translate(-0.19 -0.01)"/><path class="cls-4" d="M89.35,217.53c-1.17,1.16-5.64,3.18-6.25,2.58s1.4-5.09,2.58-6.26,2.78-1.45,3.95-.28S90.52,216.35,89.35,217.53Z" transform="translate(-0.19 -0.01)"/><path class="cls-4" d="M92.12,211.56c-1.17-1.16-3.19-5.63-2.58-6.24s5.09,1.39,6.26,2.57a2.68,2.68,0,0,1,.28,4C94.9,213,93.29,212.74,92.12,211.56Z" transform="translate(-0.19 -0.01)"/><path class="cls-4" d="M95.8,217.53c-1.17,1.17-5.65,3.18-6.26,2.58S91,215,92.12,213.85s2.78-1.45,4-.28S97,216.35,95.8,217.53Z" transform="translate(-0.19 -0.01)"/><path class="cls-4" d="M98.57,211.56c-1.17-1.16-3.19-5.63-2.58-6.24s5.09,1.39,6.26,2.57,1.45,2.78.27,4S99.73,212.74,98.57,211.56Z" transform="translate(-0.19 -0.01)"/><path class="cls-4" d="M102.25,217.53c-1.17,1.17-5.64,3.18-6.26,2.58s1.41-5.09,2.58-6.26,2.78-1.45,4-.28S103.42,216.35,102.25,217.53Z" transform="translate(-0.19 -0.01)"/><path class="cls-4" d="M105,211.56c-1.18-1.16-3.19-5.63-2.58-6.24s5.09,1.39,6.25,2.57,1.45,2.78.28,4S106.19,212.74,105,211.56Z" transform="translate(-0.19 -0.01)"/><path class="cls-4" d="M108.69,217.53c-1.16,1.17-5.64,3.18-6.25,2.58s1.4-5.09,2.58-6.26,2.78-1.45,4-.28S109.86,216.35,108.69,217.53Z" transform="translate(-0.19 -0.01)"/><path class="cls-4" d="M68.46,209.2c0-.1.27-.18,3.32-.18,5.72,0,10.36.08,10.36.18s-4.64.17-10.37.17C68.73,209.37,68.46,209.3,68.46,209.2Z" transform="translate(-0.19 -0.01)"/><path class="cls-4" d="M72.53,206.59c0-.09.19-.17,2.33-.17,4,0,7.28.08,7.28.17a70.05,70.05,0,0,1-7.28.18C72.72,206.77,72.53,206.7,72.53,206.59Z" transform="translate(-0.19 -0.01)"/><path class="cls-4" d="M68.46,216.16c0-.1.27-.18,3.31-.18,5.73,0,10.37.08,10.37.18s-4.64.18-10.36.18C68.73,216.34,68.46,216.25,68.46,216.16Z" transform="translate(-0.19 -0.01)"/><path class="cls-4" d="M72.53,218.76c0-.11.19-.19,2.33-.19a68.27,68.27,0,0,1,7.28.19c0,.1-3.26.18-7.28.18C72.72,218.94,72.53,218.86,72.53,218.76Z" transform="translate(-0.19 -0.01)"/><path class="cls-4" d="M68.46,212.59c0-.09.11-.18,1.39-.18a28.12,28.12,0,0,1,4.38.18,26.64,26.64,0,0,1-4.37.18C68.57,212.77,68.46,212.69,68.46,212.59Z" transform="translate(-0.19 -0.01)"/><path class="cls-4" d="M106.57,213h12.12c.19,0,.22-.51,0-.51H106.6C106.42,212.51,106.39,213,106.57,213Z" transform="translate(-0.19 -0.01)"/><path class="cls-5" d="M124.05,205.15c2.35,0,2.87-1.14,3.34-2.44h2v19.37h-3V207.31h-2.35Z" transform="translate(-0.19 -0.01)"/><path class="cls-5" d="M144.6,217.26c0,3.27-1.49,5-4.65,5-3,0-4.53-1.77-4.53-4.87v-.5h2.87v.69c0,1.39.61,1.91,1.58,1.91s1.69-.52,1.69-2.38v-3.51h-.06a2.79,2.79,0,0,1-2.76,1.69c-2.25,0-3.38-1.58-3.38-4.43v-3.54c0-3.1,1.63-4.87,4.62-4.87s4.62,1.77,4.62,4.87Zm-3-6.61v-3.48c0-1.39-.61-1.88-1.58-1.88s-1.58.49-1.58,1.88v3.48c0,1.39.61,1.91,1.58,1.91S141.56,212,141.56,210.65Z" transform="translate(-0.19 -0.01)"/><path class="cls-5" d="M153.53,222.3c-3.07,0-4.75-1.77-4.75-4.87v-1.52c0-1.85.55-3.27,1.88-4v-.06c-1.28-.69-1.88-2-1.88-3.87v-.61c0-3.1,1.68-4.87,4.75-4.87s4.76,1.77,4.76,4.87V208c0,1.91-.63,3.18-1.88,3.87v.06c1.33.74,1.88,2.16,1.88,4v1.52C158.29,220.53,156.6,222.3,153.53,222.3Zm-1.71-13.75c0,1.55.72,2,1.71,2s1.72-.5,1.72-2v-1.08c0-1.74-.75-2.21-1.72-2.21s-1.71.47-1.71,2.21Zm1.71,11c1,0,1.69-.47,1.72-2.18v-1.8c0-1.52-.64-2.19-1.72-2.19s-1.71.67-1.71,2.19v1.8C151.82,219.06,152.57,219.53,153.53,219.53Z" transform="translate(-0.19 -0.01)"/><path class="cls-5" d="M171.6,202.71v2.66l-4.49,16.71h-3l4.46-16.6h-6.06v-2.77Z" transform="translate(-0.19 -0.01)"/><path class="cls-6" d="M148.13,57.75a35.23,35.23,0,0,0-13.34,2.6,32.8,32.8,0,0,1-8.9-15.82q.1.15.21.15a1.28,1.28,0,0,1,.26-.63,2.14,2.14,0,0,0,0,.69,1.52,1.52,0,0,0,.23.54c.06-.13.12-.26.17-.39a3,3,0,0,0,.21.72,2.9,2.9,0,0,0,.37.62.58.58,0,0,1,.19-.37,4.17,4.17,0,0,0,.3,1.09c0-.12.08-.23.12-.35a2.62,2.62,0,0,0,.18.68,2,2,0,0,1,.12.74,4.47,4.47,0,0,0,.38-1,4.19,4.19,0,0,0,.15-1.07,4.64,4.64,0,0,0-.13-1.16,5,5,0,0,0-.44-1.11,4.88,4.88,0,0,0-.43-.65l.12,0a1.86,1.86,0,0,0,.53.12,1.25,1.25,0,0,1-.3-.64,1.84,1.84,0,0,0,1.14.66,3.65,3.65,0,0,0-.18-.41,3.05,3.05,0,0,0,.7.35,3.1,3.1,0,0,0,.76.15.62.62,0,0,1-.17-.41,4.12,4.12,0,0,0,1.08.52c-.06-.12-.13-.23-.19-.34a2.69,2.69,0,0,0,.66.32,1.92,1.92,0,0,1,.67.39,4.79,4.79,0,0,0-.51-.94,4.4,4.4,0,0,0-.73-.84,4.35,4.35,0,0,0-1-.7,4.73,4.73,0,0,0-1.17-.45,4,4,0,0,0-.59-.1l-.32-.16a2.58,2.58,0,0,0,.75-.18,2.51,2.51,0,0,0,.65-.38.52.52,0,0,1-.38-.17,2.71,2.71,0,0,0,1-.39l-.35-.07a2.1,2.1,0,0,0,.61-.27,2.23,2.23,0,0,1,.65-.27,6.94,6.94,0,0,0-1.89-.21,6.05,6.05,0,0,0-2,.42,4.35,4.35,0,0,0-.75.37,3.42,3.42,0,0,0,.13-.34.38.38,0,0,1-.29.06,2.26,2.26,0,0,0,.45-.64l-.23.09a1.53,1.53,0,0,0,.26-.4,1.5,1.5,0,0,1,.28-.41,4.39,4.39,0,0,0-1.22.62,3.42,3.42,0,0,0-.56.52,3,3,0,0,0-.46.65,2.35,2.35,0,0,0-.19.43,5.22,5.22,0,0,0-1-2,4.25,4.25,0,0,0-.81-.83,1.32,1.32,0,0,1,.11.41,1.38,1.38,0,0,0,.1.4l-.16-.14a1.54,1.54,0,0,0,.21.66.36.36,0,0,1-.23-.13,1.42,1.42,0,0,0,.33.91l-.25-.1a1,1,0,0,0,.52.66.34.34,0,0,1-.22,0,3.41,3.41,0,0,0-.6-.31,4.48,4.48,0,0,0-.74-.23,4.32,4.32,0,0,0-1.43-.05,1.52,1.52,0,0,1,.45.26,1.54,1.54,0,0,0,.43.26l-.27,0a2.34,2.34,0,0,0,.71.4.4.4,0,0,1-.3.07,2.25,2.25,0,0,0,.41.36,2.15,2.15,0,0,0,.51.23h-.36a5.12,5.12,0,0,0-1.11.15,5.35,5.35,0,0,0-1.91.9,5.88,5.88,0,0,0-1.34,1.39,1.88,1.88,0,0,1,.67-.22,2.47,2.47,0,0,0,.64-.19l-.22.27a3.07,3.07,0,0,0,1-.34.59.59,0,0,1-.2.36,2.48,2.48,0,0,0,.73-.09,2.4,2.4,0,0,0,.68-.3l-.12.24a6.26,6.26,0,0,0-.52.51,5.17,5.17,0,0,0-.71,1,5,5,0,0,0-.41,1.13,5.38,5.38,0,0,0-.12,1.11,4.59,4.59,0,0,0,.12,1.06,2.26,2.26,0,0,1,.33-.7,2.51,2.51,0,0,0,.36-.64c0,.13,0,.26,0,.38a4.11,4.11,0,0,0,.58-1,.62.62,0,0,1,.11.43,4,4,0,0,0,.53-.56,2.76,2.76,0,0,0,.37-.68c0,.15,0,.29.09.43a1.67,1.67,0,0,0,.51-.91c0,.16,0,.32,0,.48a5.41,5.41,0,0,0,.25,1.41,6.25,6.25,0,0,0,.54,1.2,7.18,7.18,0,0,0,1.53,1.82,2.4,2.4,0,0,1-.18-.84,2.63,2.63,0,0,0-.15-.82c.1.11.2.21.31.31a3.74,3.74,0,0,0-.29-1.32.64.64,0,0,1,.42.29,3.25,3.25,0,0,0-.24-1.75l.41.28a1.68,1.68,0,0,0-.09-.67,3.16,3.16,0,0,0-.37-.69,1.09,1.09,0,0,1,.33.19,1.58,1.58,0,0,1,.3.28,2.08,2.08,0,0,0,0-.43,34.51,34.51,0,0,0,8.47,16.43,36.34,36.34,0,0,0-3.91,2.06l-1.91-2.35a10.56,10.56,0,0,0,1.3-1.28c.38-.46.53-.83.38-1l-.06,0h0l0,0a2.44,2.44,0,0,0-.8-.36,3.83,3.83,0,0,0-1-.1,3.42,3.42,0,0,0-1,.17,3.5,3.5,0,0,0-.71.32h0a.3.3,0,0,0-.21-.12.32.32,0,0,0-.23.07h0a.37.37,0,0,0-.11.2.37.37,0,0,0,.07.23h0a2.89,2.89,0,0,0-.47.62,3.76,3.76,0,0,0-.37.94,3.64,3.64,0,0,0-.1,1,2.53,2.53,0,0,0,.18.86.09.09,0,0,1,0,0h0l0,.06h0c.16.19.55.12,1.07-.15a10.74,10.74,0,0,0,1.53-1l1.86,2.29c-.85.53-1.67,1.11-2.47,1.71a3.53,3.53,0,0,0,3.77-.37,1.24,1.24,0,0,1,.73-.23,1.3,1.3,0,0,1,.76.25,3.28,3.28,0,0,0,4.1.05,1.3,1.3,0,0,1,.83-.3,1.28,1.28,0,0,1,.83.3,3.28,3.28,0,0,0,4.09,0,1.26,1.26,0,0,1,.77-.26,1.23,1.23,0,0,1,.72.23,3.41,3.41,0,0,0,4.14.07,1,1,0,0,1,.22-.15l.53-.28.53.28a1.36,1.36,0,0,1,.22.15,3.41,3.41,0,0,0,4.14-.07,1.23,1.23,0,0,1,.72-.23,1.28,1.28,0,0,1,.77.26,3.28,3.28,0,0,0,4.09,0,1.27,1.27,0,0,1,.83-.3,1.32,1.32,0,0,1,.83.3,3.26,3.26,0,0,0,4.09-.05,1.33,1.33,0,0,1,.77-.25,1.29,1.29,0,0,1,.73.23,3.55,3.55,0,0,0,3.68.42c-.8-.61-1.63-1.19-2.49-1.73L169,61a11.33,11.33,0,0,0,1.53,1c.52.27.92.34,1.07.15h0a.21.21,0,0,0,0-.06h0s0,0,0,0a2.53,2.53,0,0,0,.19-.86,3.66,3.66,0,0,0-.11-1,4.18,4.18,0,0,0-.36-.94,3.74,3.74,0,0,0-.47-.62h0a.28.28,0,0,0,.07-.23.35.35,0,0,0-.1-.2h0a.29.29,0,0,0-.22-.07.32.32,0,0,0-.22.12h0a3.27,3.27,0,0,0-.71-.32,3.42,3.42,0,0,0-1-.17,3.71,3.71,0,0,0-1,.1,2.5,2.5,0,0,0-.81.36l0,0h0s0,0,0,0c-.16.19,0,.56.37,1a10.74,10.74,0,0,0,1.31,1.28l-1.94,2.38a36.41,36.41,0,0,0-3.91-2.07,34.27,34.27,0,0,0,8.49-16.45,2.08,2.08,0,0,0,0,.43,2.56,2.56,0,0,1,.3-.28,1,1,0,0,1,.34-.19,2.85,2.85,0,0,0-.38.69,1.87,1.87,0,0,0-.09.67c.14-.09.28-.18.41-.28a3.25,3.25,0,0,0-.24,1.75.66.66,0,0,1,.42-.29,4,4,0,0,0-.29,1.32c.11-.1.21-.2.31-.31a3,3,0,0,0-.15.82,2.4,2.4,0,0,1-.18.84,7,7,0,0,0,1.53-1.82,5.69,5.69,0,0,0,.54-1.2,5.41,5.41,0,0,0,.25-1.41c0-.16,0-.32,0-.48a1.73,1.73,0,0,0,.51.91,3,3,0,0,0,.09-.43,2.76,2.76,0,0,0,.37.68,3.54,3.54,0,0,0,.54.56.57.57,0,0,1,.1-.43,4.11,4.11,0,0,0,.58,1c0-.12,0-.25,0-.38a2.51,2.51,0,0,0,.36.64,2.28,2.28,0,0,1,.34.7,5.22,5.22,0,0,0,.11-1.06,5.38,5.38,0,0,0-.12-1.11,4.53,4.53,0,0,0-.41-1.13,5.13,5.13,0,0,0-.7-1,6.38,6.38,0,0,0-.53-.51l-.12-.24a2.53,2.53,0,0,0,.68.3,2.56,2.56,0,0,0,.73.09.53.53,0,0,1-.19-.36,3,3,0,0,0,1,.34l-.22-.27a2.47,2.47,0,0,0,.64.19,1.76,1.76,0,0,1,.67.22A5.84,5.84,0,0,0,177.11,42a5.4,5.4,0,0,0-1.92-.9,5.12,5.12,0,0,0-1.11-.15h-.36a1.84,1.84,0,0,0,.51-.23,2,2,0,0,0,.41-.36.4.4,0,0,1-.3-.07,2.22,2.22,0,0,0,.71-.4l-.26,0a1.64,1.64,0,0,0,.42-.26,1.52,1.52,0,0,1,.45-.26,4.26,4.26,0,0,0-1.42.05,4.08,4.08,0,0,0-1.35.54.34.34,0,0,1-.22,0,1,1,0,0,0,.53-.66l-.25.1a1.41,1.41,0,0,0,.32-.91.32.32,0,0,1-.23.13,1.56,1.56,0,0,0,.22-.66l-.17.14a1.12,1.12,0,0,0,.1-.4,1.12,1.12,0,0,1,.12-.41,4,4,0,0,0-.82.83,5.2,5.2,0,0,0-.94,2c-.06-.15-.12-.29-.19-.43a3.45,3.45,0,0,0-.46-.65,3.94,3.94,0,0,0-.57-.52,4.39,4.39,0,0,0-1.22-.62,1.5,1.5,0,0,1,.28.41,1.56,1.56,0,0,0,.27.4l-.24-.09a2.3,2.3,0,0,0,.46.64.36.36,0,0,1-.29-.06,2,2,0,0,0,.13.34,4.84,4.84,0,0,0-.76-.37,6.05,6.05,0,0,0-2.05-.42,7,7,0,0,0-1.89.21,2.23,2.23,0,0,1,.65.27,2.1,2.1,0,0,0,.61.27l-.35.07a2.76,2.76,0,0,0,1,.39.56.56,0,0,1-.39.17,2.69,2.69,0,0,0,.65.38,2.58,2.58,0,0,0,.75.18l-.32.16a3.91,3.91,0,0,0-.58.1,5,5,0,0,0-1.18.45,4.59,4.59,0,0,0-1,.7,4.78,4.78,0,0,0-.73.84,5.38,5.38,0,0,0-.51.94,2,2,0,0,1,.67-.39,2.94,2.94,0,0,0,.67-.32l-.2.34a4.12,4.12,0,0,0,1.08-.52.57.57,0,0,1-.17.41,3,3,0,0,0,.76-.15,2.86,2.86,0,0,0,.7-.35c-.07.14-.12.27-.18.41a1.82,1.82,0,0,0,1.14-.66,1.25,1.25,0,0,1-.3.64,1.79,1.79,0,0,0,.53-.12l.12,0a4.88,4.88,0,0,0-.43.65,4.56,4.56,0,0,0-.43,1.11,4.35,4.35,0,0,0,0,2.23,4,4,0,0,0,.39,1,1.63,1.63,0,0,1,.12-.74,3.08,3.08,0,0,0,.17-.68l.12.35a3.81,3.81,0,0,0,.3-1.09.55.55,0,0,1,.2.37,4.05,4.05,0,0,0,.37-.62,3,3,0,0,0,.2-.72c.05.13.11.26.17.39a1.75,1.75,0,0,0,.24-.54,2.5,2.5,0,0,0,0-.69,1.28,1.28,0,0,1,.26.63q.11,0,.21-.15a32.8,32.8,0,0,1-8.92,15.84A35.27,35.27,0,0,0,148.13,57.75Z" transform="translate(-0.19 -0.01)"/><path class="cls-2" d="M159.6,42.36a4,4,0,0,0-4.23,2.7c-1.38,3.45-2.19,3.87-2.81,3.88s-.94-1.34-2-1.34-1.66,1.33-2.61,1.34-1.66-1.38-2.9-1.38-1.47,1.33-3.61,1.37-2.72-3.46-2.67-4.89,2.39-1.37,2.39-1.37h11.11s3.56.09,3.56-.72-2.63-.75-3.37-.76h-.19s-9.69,0-10.83,0-4.51-.38-4.51,3.61c0,5.94,4.37,11.35,4.37,11.35h11c2.56-1.94,4.27-6.6,4.27-6.6a4.77,4.77,0,0,0,3.88.37,3.88,3.88,0,0,0,2.63-3.7A3.84,3.84,0,0,0,159.6,42.36Zm-.23,6.3a2.43,2.43,0,1,1,2.51-2.43A2.46,2.46,0,0,1,159.37,48.66Z" transform="translate(-0.19 -0.01)"/><path class="cls-2" d="M145.83,34.6a2.16,2.16,0,0,0-1.23-1.06c-.77-.16.63.46.79,1.77s-.24,1-1.26,2.47c-.53.76.43,1.7,1.43,2.06s.56.17.28-.26-1-1-.68-1.68S146.83,36,145.83,34.6Z" transform="translate(-0.19 -0.01)"/><path class="cls-2" d="M149.17,34.6a2.12,2.12,0,0,0-1.23-1.06c-.77-.16.63.46.8,1.77s-.25,1-1.27,2.47c-.53.76.44,1.7,1.43,2.06s.57.17.29-.26-1-1-.68-1.68S150.17,36,149.17,34.6Z" transform="translate(-0.19 -0.01)"/><path class="cls-4" d="M59.5,95,61,96c1.81,1.21,2.21,2.75,1,4.53l-.57.84,4.26,2.84L64.5,106,53.18,98.44l1.75-2.62C56.12,94,57.69,93.83,59.5,95ZM56,97.74l3.84,2.57.56-.85c.38-.56.32-1-.49-1.58L58.2,96.74c-.81-.54-1.28-.4-1.66.16Z" transform="translate(-0.19 -0.01)"/><path class="cls-4" d="M72.56,94.83l-1.32,1.71-2.18-1.21-1.61,2.08,1.74,1.8L68,100.77l-9.46-10,1.91-2.48Zm-6.4,1.23,1.26-1.63L61.33,91Z" transform="translate(-0.19 -0.01)"/><path class="cls-4" d="M67,86.26l7.35,6.59L73,94.29l-10.14-9.1,1.79-2L72.22,87l-6.07-5.45,1.28-1.42,10.14,9.1L76.1,90.87Z" transform="translate(-0.19 -0.01)"/><path class="cls-4" d="M83.46,83.52,81.9,85l-2-1.52L78,85.31l1.45,2-1.42,1.37L70.19,77.37l2.26-2.16ZM77,83.78l1.48-1.42L72.92,78.1Z" transform="translate(-0.19 -0.01)"/><path class="cls-4" d="M75.34,72.55l2.6-2.16c1.65-1.37,3.22-1.13,4.61.55l4.39,5.3c1.4,1.68,1.35,3.26-.3,4.63L84,83Zm2.89.13,6.21,7.49.93-.77c.52-.44.61-1,0-1.72l-4.52-5.45c-.62-.75-1.16-.76-1.69-.32Z" transform="translate(-0.19 -0.01)"/><path class="cls-4" d="M87.14,70.51l2.39-1.72,1.13,1.58-2.38,1.72,2.32,3.24,3-2.16,1.13,1.58L90,78.16l-8-11.06,4.74-3.41,1.14,1.58-3,2.16Z" transform="translate(-0.19 -0.01)"/><path class="cls-4" d="M99.45,71.79a4.42,4.42,0,0,1-1-1.32l-1.12-1.82c-.67-1.08-1.28-1.25-2.1-.74l-.63.39L97.47,73l-1.82,1.12L88.48,62.56l2.74-1.7c1.89-1.16,3.24-.79,4.35,1l.56.91a2.69,2.69,0,0,1,.26,3.08c1.15-.18,2,.51,2.74,1.72l1.1,1.79a4.05,4.05,0,0,0,1.07,1.28Zm-8.13-8.7,2.2,3.56.71-.44c.68-.42.91-1,.34-1.9l-.71-1.14c-.51-.83-1-1-1.66-.62Z" transform="translate(-0.19 -0.01)"/><path class="cls-4" d="M97.22,54.1,96.52,57l-1.26.69.12-2.53Zm-1.57,4.15,1.88-1,6.55,12-1.88,1Z" transform="translate(-0.19 -0.01)"/><path class="cls-4" d="M111.52,65.49l-2,.94-1.4-2.07-2.37,1.13.74,2.39-1.77.85-3.93-13.22,2.82-1.36Zm-6.27-1.78,1.86-.89-3.91-5.77Z" transform="translate(-0.19 -0.01)"/><path class="cls-4" d="M193.8,53.75l-.57,1.68c-.7,2.06-2.08,2.85-4.1,2.16l-1-.32-1.64,4.85-2-.69,4.37-12.9,3,1C193.88,50.22,194.5,51.68,193.8,53.75Zm-3.53-2.69-1.48,4.36,1,.33c.65.22,1.1,0,1.41-.88l.65-1.94c.32-.92.06-1.33-.58-1.55Z" transform="translate(-0.19 -0.01)"/><path class="cls-4" d="M197.37,66.32l-2-.83.61-2.43-2.42-1-1.3,2.14-1.81-.75,7.25-11.73,2.89,1.2Zm-2.84-5.87,1.9.8,1.7-6.76Z" transform="translate(-0.19 -0.01)"/><path class="cls-4" d="M206.81,55.64c1.86.94,2.25,2.53,1.28,4.48l-.2.38-1.81-.91.26-.5c.43-.87.25-1.38-.36-1.68s-1.12-.15-1.55.72c-1.26,2.5,2.24,4.85.49,8.33-1,1.94-2.51,2.57-4.39,1.62s-2.29-2.54-1.31-4.49l.38-.75,1.8.91-.43.87c-.44.87-.21,1.38.39,1.68s1.15.19,1.59-.68c1.26-2.51-2.25-4.85-.5-8.33C203.43,55.34,205,54.71,206.81,55.64Z" transform="translate(-0.19 -0.01)"/><path class="cls-4" d="M210.7,57.81l5.71,3.35-1,1.68-1.93-1.13-5.91,10.07-1.85-1.09,5.91-10.07-1.93-1.13Z" transform="translate(-0.19 -0.01)"/><path class="cls-4" d="M216.3,68l2.43,1.65-1.09,1.61-2.43-1.65L213,72.9,216,75l-1.1,1.61-4.83-3.27L217.75,62l4.83,3.27-1.09,1.61-3.06-2.07Z" transform="translate(-0.19 -0.01)"/><path class="cls-4" d="M224.17,66.49l1.69,1.31L218.71,77l2.79,2.16-1.19,1.53-4.48-3.46Z" transform="translate(-0.19 -0.01)"/><path class="cls-4" d="M227.67,76.69l2.2,2-1.28,1.46-2.21-1.95-2.63,3,2.77,2.44-1.29,1.46-4.38-3.86,9-10.22,4.38,3.86L233,76.29l-2.77-2.44Z" transform="translate(-0.19 -0.01)"/><path class="cls-4" d="M229.17,89a4,4,0,0,1,1.05-1.31l1.52-1.51c.9-.89.93-1.52.25-2.21l-.52-.53-3.94,3.9L226,85.79l9.69-9.58,2.27,2.3c1.56,1.58,1.49,3,0,4.46l-.76.75a2.72,2.72,0,0,1-2.95,1c.43,1.07-.05,2-1.06,3l-1.5,1.47a4.05,4.05,0,0,0-1,1.33Zm6.66-9.87-3,2.94.59.6c.56.57,1.15.67,1.93-.1l.95-.94c.69-.69.77-1.22.23-1.76Z" transform="translate(-0.19 -0.01)"/><path class="cls-4" d="M241.52,82.25l1.42,1.6L232.76,92.9l-1.42-1.6Zm4.39.6-2.94,0L242,81.73l2.49-.45Z" transform="translate(-0.19 -0.01)"/><path class="cls-4" d="M238,99.32l-1.35-1.68,1.7-1.83-1.63-2.06L234.56,95l-1.22-1.54,12-6.79,1.95,2.44Zm.33-6.51,1.29,1.61,4.74-5.1Z" transform="translate(-0.19 -0.01)"/></svg>